PathFileType	4	(X/Y/Z)	output.trc
DataRate	CameraRate	NumFrames	NumMarkers	Units	OrigDataRate	OrigDataStartFrame	OrigNumFrames
100	100	18	23	m	100	1	5673
Frame#	Time	C7			T8			EL			EM			US			RS			AA			Fore_Clus_1			Fore_Clus_2			Fore_Clus_3			Fore_Clus_4			Hum_Clus_1			Hum_Clus_2			Hum_Clus_3			Hum_Clus_4			Thor_Clus_1			Thor_Clus_2			Thor_Clus_3			Thor_Clus_4			IJ			PX			GH			Thor_Clus_5		
		X1	Y1	Z1	X2	Y2	Z2	X3	Y3	Z3	X4	Y4	Z4	X5	Y5	Z5	X6	Y6	Z6	X7	Y7	Z7	X8	Y8	Z8	X9	Y9	Z9	X10	Y10	Z10	X11	Y11	Z11	X12	Y12	Z12	X13	Y13	Z13	X14	Y14	Z14	X15	Y15	Z15	X16	Y16	Z16	X17	Y17	Z17	X18	Y18	Z18	X19	Y19	Z19	X20	Y20	Z20	X21	Y21	Z21	X22	Y22	Z22	X23	Y23	Z23
0	0.000000	-0.084540	1.522158	-0.130474	-0.109823	1.294352	-0.204726	-0.298905	1.146754	0.034341	-0.280001	1.127841	-0.038288	-0.269944	0.878653	0.098651	-0.214965	0.888165	0.105920	-0.238690	1.450315	-0.001213	-0.276954	0.932719	0.119540	-0.267787	0.880849	0.132830	-0.240879	0.887094	0.136992	-0.233837	0.943104	0.127360	-0.286893	1.248204	0.072828	-0.323699	1.265016	0.028272	-0.318278	1.328209	0.033086	-0.275098	1.321458	0.072554	0.039337	1.411255	0.004036	-0.001884	1.355654	0.052485	0.000043	1.405998	0.024336	0.055035	1.362685	0.022998	-0.016528	1.431849	-0.034030	0.009376	1.219034	0.021042	-0.213526	1.421084	-0.009767	-0.008761	1.377165	0.044089
1	0.010000	-0.084590	1.522165	-0.130478	-0.109904	1.294356	-0.204710	-0.298973	1.146732	0.034281	-0.280040	1.127817	-0.038339	-0.270087	0.878603	0.098365	-0.215187	0.888243	0.106051	-0.238753	1.450356	-0.001213	-0.277349	0.932600	0.119246	-0.268081	0.880822	0.132573	-0.241206	0.887010	0.136940	-0.234251	0.943083	0.127382	-0.286934	1.248108	0.073003	-0.323777	1.264999	0.028209	-0.318351	1.328196	0.033023	-0.275180	1.321445	0.072490	0.039251	1.411266	0.004038	-0.001957	1.355668	0.052461	-0.000042	1.405993	0.024350	0.054956	1.362685	0.022995	-0.016593	1.431855	-0.034025	0.009280	1.219042	0.021067	-0.213598	1.421067	-0.009811	-0.008838	1.377162	0.044082
2	0.020000	-0.084646	1.522145	-0.130500	-0.109983	1.294322	-0.204682	-0.299045	1.146708	0.034223	-0.280084	1.127789	-0.038389	-0.270219	0.878542	0.098058	-0.215406	0.888318	0.106179	-0.238820	1.450381	-0.001223	-0.277688	0.932509	0.118906	-0.268360	0.880649	0.132218	-0.241578	0.886952	0.136861	-0.234734	0.943079	0.127401	-0.286999	1.248095	0.072914	-0.323846	1.264975	0.028135	-0.318421	1.328174	0.032964	-0.275256	1.321431	0.072446	0.039174	1.411266	0.004040	-0.002040	1.355644	0.052499	-0.000128	1.405985	0.024342	0.054865	1.362679	0.023015	-0.016661	1.431848	-0.034025	0.009187	1.219044	0.021114	-0.213672	1.421045	-0.009854	-0.008920	1.377167	0.044078
3	0.030000	-0.084698	1.522104	-0.130536	-0.110056	1.294262	-0.204648	-0.299123	1.146681	0.034166	-0.280133	1.127758	-0.038437	-0.270335	0.878469	0.097726	-0.215619	0.888389	0.106306	-0.238887	1.450398	-0.001245	-0.278039	0.932381	0.118561	-0.268712	0.880456	0.131849	-0.241990	0.886890	0.136745	-0.235252	0.943062	0.127439	-0.287058	1.248060	0.072862	-0.323909	1.264947	0.028073	-0.318498	1.328145	0.032902	-0.275324	1.321412	0.072379	0.039086	1.411258	0.004039	-0.002126	1.355686	0.052475	-0.000199	1.405997	0.024329	0.054783	1.362693	0.023018	-0.016729	1.431831	-0.034029	0.009093	1.219041	0.021178	-0.213747	1.421019	-0.009897	-0.008988	1.377182	0.044082
4	0.040000	-0.084748	1.522045	-0.130588	-0.110123	1.294174	-0.204608	-0.299205	1.146652	0.034111	-0.280186	1.127725	-0.038484	-0.270435	0.878383	0.097367	-0.215824	0.888457	0.106431	-0.238956	1.450408	-0.001280	-0.278433	0.932265	0.118174	-0.269105	0.880389	0.131585	-0.242389	0.886794	0.136630	-0.235710	0.943060	0.127436	-0.287134	1.248037	0.072784	-0.323972	1.264919	0.028010	-0.318575	1.328113	0.032845	-0.275396	1.321390	0.072330	0.039003	1.411264	0.004043	-0.002198	1.355689	0.052485	-0.000281	1.406004	0.024341	0.054695	1.362691	0.023035	-0.016796	1.431805	-0.034037	0.008999	1.219035	0.021260	-0.213823	1.420991	-0.009937	-0.009067	1.377202	0.044093
5	0.050000	-0.084799	1.521963	-0.130655	-0.110184	1.294055	-0.204558	-0.299291	1.146622	0.034053	-0.280243	1.127693	-0.038533	-0.270521	0.878285	0.096982	-0.216026	0.888519	0.106554	-0.239026	1.450406	-0.001327	-0.278912	0.932174	0.117847	-0.269517	0.880275	0.131275	-0.242804	0.886769	0.136485	-0.236204	0.943068	0.127437	-0.287213	1.248000	0.072711	-0.324030	1.264892	0.027937	-0.318648	1.328088	0.032782	-0.275481	1.321365	0.072260	0.038917	1.411271	0.004073	-0.002287	1.355726	0.052492	-0.000372	1.406031	0.024353	0.054614	1.362706	0.023076	-0.016865	1.431768	-0.034050	0.008908	1.219025	0.021362	-0.213899	1.420962	-0.009975	-0.009168	1.377210	0.044126
6	0.060000	-0.084839	1.521872	-0.130734	-0.110236	1.293923	-0.204507	-0.299380	1.146593	0.033994	-0.280304	1.127661	-0.038584	-0.270586	0.878174	0.096571	-0.216219	0.888576	0.106674	-0.239094	1.450406	-0.001387	-0.279375	0.932030	0.117443	-0.269963	0.880145	0.130906	-0.243342	0.886697	0.136658	-0.236829	0.943089	0.127486	-0.287300	1.247959	0.072646	-0.324093	1.264859	0.027877	-0.318715	1.328054	0.032723	-0.275554	1.321338	0.072206	0.038837	1.411283	0.004098	-0.002385	1.355748	0.052547	-0.000457	1.406051	0.024384	0.054541	1.362732	0.023126	-0.016929	1.431727	-0.034065	0.008814	1.219014	0.021476	-0.213975	1.420932	-0.010010	-0.009246	1.377227	0.044160
7	0.070000	-0.084879	1.521765	-0.130825	-0.110282	1.293770	-0.204450	-0.299473	1.146564	0.033930	-0.280367	1.127631	-0.038640	-0.270637	0.878052	0.096134	-0.216409	0.888626	0.106790	-0.239163	1.450399	-0.001458	-0.279941	0.931827	0.116984	-0.270458	0.880000	0.130446	-0.243937	0.886605	0.136496	-0.237537	0.943057	0.127495	-0.287377	1.247923	0.072591	-0.324147	1.264825	0.027809	-0.318794	1.328015	0.032676	-0.275641	1.321307	0.072152	0.038766	1.411298	0.004132	-0.002486	1.355798	0.052566	-0.000532	1.406070	0.024412	0.054467	1.362748	0.023179	-0.016994	1.431680	-0.034084	0.008722	1.219002	0.021604	-0.214051	1.420902	-0.010042	-0.009330	1.377262	0.044212
8	0.080000	-0.084910	1.521655	-0.130922	-0.110319	1.293610	-0.204392	-0.299570	1.146536	0.033861	-0.280433	1.127604	-0.038701	-0.270670	0.877919	0.095674	-0.216592	0.888669	0.106899	-0.239228	1.450395	-0.001538	-0.280453	0.931611	0.116483	-0.270895	0.879774	0.129841	-0.244462	0.886527	0.136407	-0.238235	0.943025	0.127540	-0.287477	1.247870	0.072508	-0.324226	1.264779	0.027744	-0.318877	1.327978	0.032614	-0.275730	1.321246	0.072108	0.038686	1.411312	0.004169	-0.002571	1.355798	0.052613	-0.000608	1.406073	0.024443	0.054387	1.362760	0.023229	-0.017054	1.431631	-0.034103	0.008628	1.218990	0.021740	-0.214127	1.420875	-0.010070	-0.009408	1.377268	0.044223
9	0.090000	-0.084933	1.521544	-0.131022	-0.110348	1.293449	-0.204335	-0.299669	1.146511	0.033787	-0.280501	1.127582	-0.038768	-0.270686	0.877777	0.095192	-0.216769	0.888706	0.107000	-0.239292	1.450395	-0.001627	-0.280962	0.931385	0.116019	-0.271479	0.879583	0.129441	-0.245004	0.886406	0.136141	-0.238981	0.942955	0.127532	-0.287581	1.247821	0.072437	-0.324316	1.264743	0.027674	-0.318973	1.327940	0.032554	-0.275839	1.321210	0.072064	0.038617	1.411321	0.004218	-0.002655	1.355792	0.052642	-0.000704	1.406067	0.024476	0.054307	1.362764	0.023273	-0.017111	1.431582	-0.034121	0.008533	1.218979	0.021881	-0.214203	1.420850	-0.010096	-0.009464	1.377271	0.044282
10	0.100000	-0.084951	1.521432	-0.131125	-0.110370	1.293286	-0.204278	-0.299772	1.146489	0.033705	-0.280571	1.127565	-0.038843	-0.270689	0.877629	0.094691	-0.216940	0.888736	0.107089	-0.239354	1.450393	-0.001721	-0.281468	0.931158	0.115415	-0.271957	0.879400	0.129034	-0.245557	0.886245	0.135901	-0.239646	0.942803	0.127517	-0.287719	1.247777	0.072369	-0.324423	1.264704	0.027586	-0.319085	1.327902	0.032471	-0.275961	1.321165	0.072001	0.038561	1.411309	0.004253	-0.002753	1.355725	0.052764	-0.000780	1.406062	0.024515	0.054244	1.362762	0.023328	-0.017167	1.431534	-0.034139	0.008440	1.218969	0.022026	-0.214278	1.420829	-0.010119	-0.009753	1.377217	0.044223
11	0.110000	-0.084957	1.521331	-0.131224	-0.110383	1.293138	-0.204227	-0.299877	1.146470	0.033616	-0.280642	1.127552	-0.038924	-0.270673	0.877476	0.094175	-0.217102	0.888761	0.107165	-0.239411	1.450402	-0.001821	-0.281846	0.930933	0.114876	-0.272255	0.879179	0.128496	-0.245961	0.886041	0.135519	-0.240207	0.942718	0.127452	-0.287866	1.247763	0.072300	-0.324546	1.264690	0.027483	-0.319207	1.327880	0.032367	-0.276114	1.321144	0.071956	0.038516	1.411221	0.004248	-0.002874	1.355742	0.052895	-0.000836	1.406047	0.024537	0.054167	1.362759	0.023373	-0.017216	1.431491	-0.034154	0.008344	1.218961	0.022166	-0.214352	1.420812	-0.010140	-0.009816	1.377220	0.044254
12	0.120000	-0.084961	1.521235	-0.131318	-0.110389	1.292998	-0.204180	-0.299984	1.146456	0.033520	-0.280716	1.127546	-0.039013	-0.270644	0.877321	0.093646	-0.217256	0.888781	0.107223	-0.239469	1.450410	-0.001922	-0.282174	0.930732	0.114285	-0.272467	0.878921	0.127845	-0.246302	0.885932	0.135341	-0.240777	0.942667	0.127375	-0.288044	1.247812	0.072271	-0.324658	1.264679	0.027347	-0.319337	1.327867	0.032249	-0.276267	1.321123	0.071866	0.038717	1.410637	0.003981	-0.002944	1.355716	0.052913	-0.000902	1.406051	0.024569	0.054087	1.362752	0.023432	-0.017264	1.431451	-0.034165	0.008250	1.218955	0.022303	-0.214425	1.420798	-0.010159	-0.009892	1.377205	0.044281
13	0.130000	-0.084957	1.521154	-0.131403	-0.110386	1.292877	-0.204141	-0.300095	1.146445	0.033418	-0.280793	1.127546	-0.039108	-0.270599	0.877167	0.093107	-0.217398	0.888799	0.107261	-0.239523	1.450425	-0.002024	-0.282520	0.930444	0.113723	-0.272765	0.878689	0.127282	-0.246615	0.885790	0.135081	-0.241325	0.942620	0.127274	-0.288199	1.247799	0.072165	-0.324792	1.264674	0.027220	-0.319474	1.327863	0.032125	-0.276451	1.321101	0.071786	0.038617	1.410715	0.004067	-0.003035	1.355710	0.052941	-0.000973	1.406035	0.024592	0.054003	1.362761	0.023487	-0.017309	1.431417	-0.034172	0.008157	1.218951	0.022431	-0.214496	1.420789	-0.010178	-0.009957	1.377210	0.044306
14	0.140000	-0.084947	1.521087	-0.131477	-0.110376	1.292776	-0.204111	-0.300208	1.146440	0.033312	-0.280873	1.127551	-0.039209	-0.270538	0.877016	0.092561	-0.217527	0.888815	0.107276	-0.239575	1.450442	-0.002126	-0.282813	0.930226	0.113232	-0.273014	0.878510	0.126781	-0.246971	0.885651	0.134783	-0.241748	0.942547	0.127094	-0.288384	1.247795	0.072064	-0.324925	1.264685	0.027092	-0.319598	1.327867	0.032019	-0.276624	1.321083	0.071699	0.038554	1.410701	0.004120	-0.003120	1.355715	0.052966	-0.001028	1.406030	0.024608	0.053942	1.362763	0.023551	-0.017350	1.431390	-0.034173	0.008065	1.218950	0.022547	-0.214565	1.420784	-0.010196	-0.010022	1.377211	0.044344
15	0.150000	-0.084939	1.521029	-0.131541	-0.110359	1.292690	-0.204088	-0.300325	1.146439	0.033201	-0.280956	1.127562	-0.039314	-0.270463	0.876870	0.092008	-0.217641	0.888832	0.107263	-0.239629	1.450455	-0.002225	-0.283061	0.930047	0.112661	-0.273190	0.878317	0.126252	-0.247305	0.885519	0.134462	-0.242201	0.942492	0.126889	-0.288549	1.247807	0.071962	-0.325049	1.264696	0.026977	-0.319716	1.327896	0.031911	-0.276774	1.321073	0.071609	0.038500	1.410725	0.004152	-0.003200	1.355719	0.053003	-0.001105	1.406047	0.024643	0.053868	1.362784	0.023585	-0.017393	1.431368	-0.034170	0.007978	1.218949	0.022652	-0.214631	1.420782	-0.010213	-0.010098	1.377227	0.044367
16	0.160000	-0.084925	1.520991	-0.131589	-0.110335	1.292632	-0.204076	-0.300445	1.146443	0.033088	-0.281045	1.127578	-0.039422	-0.270367	0.876732	0.091448	-0.217734	0.888851	0.107223	-0.239681	1.450472	-0.002322	-0.283326	0.929864	0.112058	-0.273300	0.878121	0.125508	-0.247567	0.885357	0.134069	-0.242481	0.942234	0.126306	-0.288718	1.247808	0.071837	-0.325168	1.264720	0.026869	-0.319811	1.327910	0.031812	-0.276916	1.321101	0.071565	0.038435	1.410739	0.004200	-0.003293	1.355732	0.053035	-0.001174	1.406062	0.024675	0.053784	1.362791	0.023670	-0.017432	1.431354	-0.034159	0.007892	1.218950	0.022741	-0.214694	1.420783	-0.010231	-0.010168	1.377242	0.044401
17	0.170000	-0.084918	1.520960	-0.131626	-0.110305	1.292585	-0.204071	-0.300568	1.146451	0.032973	-0.281139	1.127599	-0.039532	-0.270256	0.876602	0.090882	-0.217809	0.888875	0.107150	-0.239737	1.450480	-0.002414	-0.283614	0.929668	0.111440	-0.273543	0.877988	0.124982	-0.247861	0.885271	0.133723	-0.242903	0.942159	0.126234	-0.288828	1.247811	0.071747	-0.325274	1.264742	0.026786	-0.319887	1.327952	0.031732	-0.276999	1.321096	0.071498	0.038372	1.410769	0.004248	-0.003374	1.355752	0.053076	-0.001234	1.406082	0.024705	0.053708	1.362822	0.023724	-0.017474	1.431343	-0.034144	0.007813	1.218951	0.022818	-0.214752	1.420787	-0.010248	-0.010248	1.377273	0.044422
